<svg xmlns="http://www.w3.org/2000/svg" version="1.1" xmlns:xlink="http://www.w3.org/1999/xlink" xmlns:svgjs="http://svgjs.dev/svgjs" viewBox="0 0 800 800"><defs><filter id="uuunion-blur" x="-100%" y="-100%" width="400%" height="400%" color-interpolation-filters="sRGB">
        <feGaussianBlur in="SourceGraphic" stdDeviation="7.5 0" result="blur"></feGaussianBlur>
        <feDropShadow stdDeviation="12.307692307692308" in="blur" dx="10" dy="10" flood-color="hsl(23, 87%, 40%)" flood-opacity="0.25" x="0%" y="0%" width="100%" height="100%"></feDropShadow>
      </filter><filter id="uuunion-blur2" x="-100%" y="-100%" width="400%" height="400%" color-interpolation-filters="sRGB">
        <feGaussianBlur in="SourceGraphic" stdDeviation="7.5 0" result="blur"></feGaussianBlur>
        <feDropShadow stdDeviation="12.307692307692308" in="blur" dx="-10" dy="-10" flood-color="hsl(23, 87%, 40%)" flood-opacity="0.25" x="0%" y="0%" width="100%" height="100%"></feDropShadow>
      </filter><linearGradient gradientTransform="rotate(0, 0.5, 0.5)" x1="50%" y1="0%" x2="50%" y2="100%" id="uuunion-grad"><stop stop-color="hsl(164, 99%, 67%)" offset="10%"></stop><stop stop-color="hsl(23, 87%, 40%)" offset="90%"></stop></linearGradient><linearGradient gradientTransform="rotate(135, 0.5, 0.5)" x1="50%" y1="0%" x2="50%" y2="100%" id="uuunion-grad2"><stop stop-color="hsl(164, 99%, 67%)" offset="25%"></stop><stop stop-color="hsl(23, 87%, 40%)" offset="100%"></stop></linearGradient><linearGradient gradientTransform="rotate(333, 0.5, 0.5)" x1="50%" y1="0%" x2="50%" y2="100%" id="uuunion-grad3"><stop stop-color="hsl(164, 99%, 67%)" offset="0%"></stop><stop stop-color="hsl(23, 87%, 40%)" offset="75%"></stop></linearGradient></defs><path d="M-79.92 -78.53Q-64.95 -76.32 -49.97 -74.37 -35 -72.8 -20.03 -71.73 -5.05 -71.23 9.91 -71.33 24.89 -72.03 39.86 -73.27 54.84 -74.98 69.81 -77.04 84.79 -79.3 99.76 -81.6 114.74 -83.8 129.71 -85.73 144.68 -87.27 159.66 -88.31 174.63 -88.77 189.61 -88.63 204.58 -87.9 219.56 -86.62 234.53 -84.89 249.51 -82.82 264.48 -80.55 279.46 -78.25 294.43 -76.06 309.4 -74.15 324.38 -72.64 339.35 -71.64 354.33 -71.21 369.3 -71.38 384.28 -72.15 399.25 -73.46 414.23 -75.22 429.2 -77.31 444.18 -79.58 459.15 -81.88 474.12 -84.05 489.1 -85.95 504.07 -87.43 519.05 -88.4 534.02 -88.79 549 -88.57 563.97 -87.77 578.95 -86.43 593.92 -84.65 608.9 -82.54 623.87 -80.26 638.84 -77.97 653.82 -75.81 668.79 -73.94 683.77 -72.49 698.74 -71.55 713.72 -71.2 728.69 -71.45 743.67 -72.29 758.64 -73.66 773.62 -75.47 788.59 -77.58 803.56 -79.87 818.54 -82.16 833.51 -84.31 848.49 -86.15 864.52 -80.64 857.38 -58.91 856.5 -44.13 863.23 -29.35 875.39 -14.56 889.04 0.21 899.76 14.99 904.08 29.78 900.61 44.56 890.46 59.34 876.93 74.13 864.39 88.91 856.9 103.69 856.88 118.48 864.35 133.26 876.89 148.04 890.43 162.83 900.59 177.61 904.08 192.39 899.78 207.17 889.08 221.96 875.43 236.74 863.26 251.52 856.51 266.31 857.36 281.09 865.54 295.87 878.4 310.66 891.77 325.44 901.33 340.22 903.99 355.01 898.88 369.79 887.65 384.57 873.95 399.36 862.2 414.14 856.22 428.92 857.93 443.7 866.78 458.49 879.91 473.27 893.07 488.05 902 502.84 903.8 517.62 897.9 532.4 886.2 547.19 872.49 561.97 861.22 576.75 856.02 591.54 858.58 606.32 868.08 621.1 881.43 635.88 894.32 650.67 902.57 665.45 903.52 680.23 896.85 695.02 884.72 709.8 871.07 724.58 860.3 739.37 855.91 754.15 859.32 768.93 869.42 783.72 882.94 798.5 895.51 813.28 903.06 828.07 903.14 842.85 895.73 857.63 880.47 860.01 865.21 863.76 849.96 868.63 834.7 874.28 819.44 880.33 804.19 886.35 788.93 891.94 773.67 896.7 758.42 900.31 743.16 902.53 727.9 903.19 712.64 902.25 697.39 899.79 682.13 895.96 666.87 891.03 651.62 885.34 636.36 879.28 621.1 873.28 605.84 867.73 590.59 863.03 575.33 859.5 560.07 857.38 544.82 856.81 529.56 857.84 514.3 860.4 499.05 864.31 483.79 869.3 468.53 875.02 453.27 881.08 438.02 887.08 422.76 892.58 407.5 897.22 392.25 900.67 376.99 902.69 361.73 903.16 346.47 902.03 331.22 899.38 315.96 895.4 300.7 890.36 285.45 884.6 270.19 878.53 254.93 872.56 239.68 867.1 224.42 862.52 209.16 859.15 193.9 857.22 178.65 856.85 163.39 858.08 148.13 860.82 132.88 864.87 117.62 869.97 102.36 875.76 87.1 881.84 71.85 887.79 56.59 893.21 41.33 897.71 26.08 901 10.82 902.84 -4.43 903.11 -19.68 901.78 -34.94 898.96 -50.2 894.83 -65.46 889.68 -80.71 883.86 -81.05 868.82 -81.05 853.78 -80.7 838.75 -80.13 823.71 -79.51 808.67 -79.05 793.63 -78.9 778.6 -79.1 763.56 -79.59 748.52 -80.21 733.48 -80.76 718.45 -81.07 703.41 -81.03 688.37 -80.65 673.33 -80.06 658.3 -79.45 643.26 -79.02 628.22 -78.9 613.18 -79.14 598.15 -79.65 583.11 -80.28 568.07 -80.81 553.03 -81.08 538 -81 522.96 -80.59 507.92 -79.99 492.88 -79.39 477.85 -78.99 462.81 -78.91 447.77 -79.18 432.73 -79.72 417.7 -80.34 402.66 -80.86 387.62 -81.09 372.58 -80.97 357.55 -80.53 342.51 -79.92 327.47 -79.34 312.43 -78.96 297.4 -78.92 282.36 -79.23 267.32 -79.79 252.28 -80.41 237.25 -80.9 222.21 -81.09 207.17 -80.93 192.13 -80.47 177.1 -79.85 162.06 -79.28 147.02 -78.94 131.98 -78.94 116.95 -79.28 101.91 -79.85 86.87 -80.47 71.83 -80.94 56.8 -81.09 41.76 -80.9 26.72 -80.41 11.69 -79.78 -3.34 -79.23 -18.38 -78.92 -33.42 -78.96 -48.45 -79.34 -63.49 -79.92 -78.53" fill="url(#uuunion-grad)"></path><path d="M-79.92 -78.53Q-79.34 -63.49 -78.96 -48.45 -78.92 -33.42 -79.23 -18.38 -79.78 -3.34 -80.41 11.69 -80.9 26.72 -81.09 41.76 -80.94 56.8 -80.47 71.83 -79.85 86.87 -79.28 101.91 -78.94 116.95 -78.94 131.98 -79.28 147.02 -79.85 162.06 -80.47 177.1 -80.93 192.13 -81.09 207.17 -80.9 222.21 -80.41 237.25 -79.79 252.28 -79.23 267.32 -78.92 282.36 -78.96 297.4 -79.34 312.43 -79.92 327.47 -80.53 342.51 -80.97 357.55 -81.09 372.58 -80.86 387.62 -80.34 402.66 -70.26 405.37 -60.18 407.92 -50.09 410.22 -40.01 412.21 -29.93 413.83 -19.84 415.02 -0.94 415.93 2.32 415.99 15.19 409.14 28.15 401.58 41.15 393.36 54.13 384.59 67.01 375.39 79.76 365.91 92.3 356.32 104.6 346.75 116.64 337.39 128.41 328.36 139.95 319.8 151.28 311.81 162.48 304.47 173.62 297.82 184.79 291.87 196.1 286.6 207.64 281.95 219.49 277.84 231.74 274.17 244.42 270.79 257.56 267.57 271.16 264.37 285.18 261.04 299.55 257.44 314.16 253.46 328.91 248.98 343.65 243.93 358.23 238.27 372.52 231.97 386.37 225.04 399.68 217.52 412.36 209.49 424.36 201.04 435.68 192.27 446.34 183.31 456.42 174.29 466.04 165.35 475.35 156.6 484.54 148.18 493.79 140.17 503.3 132.65 513.27 125.68 523.86 119.28 535.23 113.45 547.47 108.16 560.63 103.35 574.7 98.96 589.63 94.88 605.31 91.01 621.56 87.23 638.19 83.43 654.96 79.47 671.61 75.27 687.9 70.73 703.58 65.76 718.43 60.32 732.3 54.38 745.05 47.93 756.64 40.99 767.09 33.59 776.47 25.82 784.93 17.73 792.69 9.43 800 1.01 786.28 -16.5 778.55 -34.03 780.17 -51.56 790.44 -69.08 804.88 -86.61 817.19 -104.14 821.99 -121.66 817.21 -139.19 802 -137.19 786.78 -135.37 771.57 -133.87 756.36 -132.79 741.15 -132.2 725.93 -132.13 710.72 -132.61 695.51 -133.58 680.3 -134.99 665.08 -136.74 649.87 -138.71 634.66 -140.77 619.45 -142.78 604.23 -144.6 589.02 -146.1 573.81 -147.19 558.6 -147.79 543.39 -147.86 528.17 -147.39 512.96 -146.42 497.75 -145.02 482.54 -143.27 467.32 -141.3 452.11 -139.24 436.9 -137.24 421.69 -135.42 406.47 -133.91 391.26 -132.81 376.05 -132.21 360.84 -132.13 345.62 -132.59 330.41 -133.55 315.2 -134.95 299.99 -136.69 284.77 -138.66 269.56 -140.72 254.35 -142.73 239.14 -144.55 223.92 -146.07 208.71 -147.17 193.5 -147.78 178.29 -147.86 163.08 -147.41 147.86 -146.46 132.65 -145.06 117.44 -143.32 102.23 -141.36 87.01 -139.3 71.8 -137.29 56.59 -135.46 41.38 -133.94 26.16 -132.84 10.95 -132.22 -4.25 -132.12 -19.46 -132.57 -34.68 -133.52 -49.89 -134.91 -65.1 -136.64 -80.31 -138.61 -95.53 -140.66 -110.74 -142.68 -125.95 -144.51 -136.38 -132.5 -118.83 -113.86 -109.06 -105.15 -99.27 -96.34 -89.54 -87.45 -79.92 -78.53" fill="url(#uuunion-grad2)" filter="url(#uuunion-blur)"></path><path d="M806.99 401.63Q817.07 398.82 827.15 396.06 837.24 393.41 847.32 390.97 857.4 388.8 867.49 386.98 875.76 392.45 862.2 414.14 856.22 428.92 857.93 443.7 866.78 458.49 879.91 473.27 893.07 488.05 902 502.84 903.8 517.62 897.9 532.4 886.2 547.19 872.49 561.97 861.22 576.75 856.02 591.54 858.58 606.32 868.08 621.1 881.43 635.88 894.32 650.67 902.57 665.45 903.52 680.23 896.85 695.02 884.72 709.8 871.07 724.58 860.3 739.37 855.91 754.15 859.32 768.93 869.42 783.72 882.94 798.5 895.51 813.28 903.06 828.07 903.14 842.85 895.73 857.63 881.73 859.76 867.73 863.06 853.72 867.34 839.72 872.36 825.72 877.82 811.72 883.41 797.72 888.8 783.72 893.67 769.72 897.76 755.71 900.81 741.71 902.66 727.71 903.19 713.71 902.37 699.71 900.26 685.71 896.97 671.7 892.69 657.7 887.68 643.7 882.22 629.7 876.63 615.7 871.24 601.7 866.35 587.7 862.26 573.69 859.2 559.69 857.34 545.69 856.8 531.69 857.61 517.69 859.71 503.69 862.99 489.68 867.26 475.68 872.27 461.68 877.72 447.68 883.31 433.68 888.71 419.68 893.6 405.68 897.7 391.67 900.77 377.67 902.64 363.67 903.19 349.67 902.4 335.67 900.3 321.67 897.03 307.66 892.77 293.66 887.77 279.66 882.31 265.66 876.73 251.66 871.33 237.66 866.43 223.66 862.32 209.65 859.24 195.65 857.36 181.65 856.8 167.65 857.58 153.65 859.66 139.65 862.93 125.64 867.18 111.64 872.18 97.64 877.63 83.64 883.22 69.64 888.62 55.64 893.52 41.64 897.63 27.63 900.73 6.75 897.83 -0.03 882.89 -0.06 872.74 -0.24 862.59 -0.52 852.44 -0.88 842.29 -1.17 827.07 -0.6 822 11.47 815.13 23.5 807.24 35.55 798.43 47.68 788.82 59.96 778.58 72.42 767.9 85.1 757.01 98.03 746.12 111.21 735.45 124.61 725.22 138.18 715.61 151.87 706.78 165.6 698.84 179.27 691.86 192.8 685.88 206.09 680.86 219.07 676.75 231.67 673.43 243.84 670.75 255.57 668.54 266.87 666.6 277.8 664.73 288.41 662.7 298.82 660.33 309.14 657.43 319.51 653.84 330.06 649.45 340.94 644.17 352.27 637.97 364.15 630.85 376.66 622.86 389.82 614.1 403.64 604.69 418.08 594.78 433.04 584.57 448.41 574.24 464.02 563.98 479.7 553.99 495.25 544.45 510.49 535.5 525.23 527.27 539.31 519.85 552.6 513.28 565.03 507.57 576.56 502.69 587.21 498.55 597.06 495.07 606.23 492.08 614.89 489.44 623.26 486.96 631.58 484.47 640.09 481.79 649.04 478.74 658.66 475.18 669.13 470.99 680.63 466.07 693.23 460.36 706.97 453.86 721.82 446.59 737.67 438.59 754.35 429.96 771.65 420.83 789.29 411.33 806.99 401.63 806.99 401.63 806.99 401.63" fill="url(#uuunion-grad3)" filter="url(#uuunion-blur2)"></path></svg>